# Blender v2.79 (sub 0) OBJ File: ''
# www.blender.org
mtllib door.mtl
o interior_Cube.001
v 0.000000 -0.850000 0.850000
v 0.000000 0.850000 0.850000
v 0.000000 0.850000 -0.850000
v 0.000000 -0.850000 -0.850000
v 0.100000 0.850000 -0.850000
v 0.100000 -0.850000 -0.850000
v 0.100000 0.850000 0.850000
v 0.100000 -0.850000 0.850000
vn -1.0000 0.0000 0.0000
vn 0.0000 0.0000 -1.0000
vn 1.0000 -0.0000 0.0000
vn 0.0000 -0.0000 1.0000
vn 0.0000 -1.0000 -0.0000
vn 0.0000 1.0000 0.0000
usemtl None
s 1
f 1//1 2//1 3//1 4//1
f 4//2 3//2 5//2 6//2
f 6//3 5//3 7//3 8//3
f 8//4 7//4 2//4 1//4
f 4//5 6//5 8//5 1//5
f 5//6 3//6 2//6 7//6
o window_Cube
v 0.300000 -1.000000 -1.000000
v 0.300000 -1.000000 1.000000
v 0.000000 -1.000000 1.000000
v 0.000000 -1.000000 -1.000000
v 0.300000 1.000000 -0.999999
v 0.000000 1.000000 -1.000000
v 0.000000 1.000000 1.000000
v 0.300000 1.000000 1.000001
v 0.300000 0.850000 -0.850000
v 0.300000 -0.850000 -0.850000
v 0.300000 -0.850000 0.850000
v 0.000000 0.850000 0.850000
v 0.000000 -0.850000 0.850000
v 0.000000 -0.850000 -0.850000
v 0.000000 0.850000 -0.850000
v 0.300000 0.850000 0.850000
v -0.034314 -1.000000 0.484119
v -0.034314 1.000000 0.484119
v -0.034314 -1.000000 -0.484119
v -0.034314 1.000000 -0.484119
v 0.265686 -1.000000 0.484119
v 0.265686 1.000000 0.484119
v 0.265686 -1.000000 -0.484119
v 0.265686 1.000000 -0.484119
v 0.265686 0.428636 0.320000
v -0.034314 0.428636 0.320000
v 0.265686 0.428636 -0.320000
v -0.034314 0.428636 -0.320000
v 0.265686 0.628636 0.320000
v -0.034314 0.628636 0.320000
v 0.265686 0.628636 -0.320000
v -0.034314 0.628636 -0.320000
v 0.265686 0.081872 0.320000
v -0.034314 0.081872 0.320000
v 0.265686 0.081872 -0.320000
v -0.034314 0.081872 -0.320000
v 0.265686 0.281872 0.320000
v -0.034314 0.281872 0.320000
v 0.265686 0.281872 -0.320000
v -0.034314 0.281872 -0.320000
v 0.265686 -0.286850 0.320000
v -0.034314 -0.286850 0.320000
v 0.265686 -0.286850 -0.320000
v -0.034314 -0.286850 -0.320000
v 0.265686 -0.086850 0.320000
v -0.034314 -0.086850 0.320000
v 0.265686 -0.086850 -0.320000
v -0.034314 -0.086850 -0.320000
vn -1.0000 0.0000 0.0000
vn 0.0000 0.0000 -1.0000
vn 1.0000 0.0000 -0.0000
vn 0.0000 0.0000 1.0000
vn 0.0000 -1.0000 0.0000
vn 0.0000 1.0000 0.0000
usemtl Material.001
s off
f 25//7 26//7 46//7 42//7 44//7 28//7 27//7 52//7 56//7 54//7
f 27//8 28//8 32//8 31//8
f 31//9 55//9 51//9 49//9 29//9
f 29//10 30//10 26//10 25//10
f 27//11 31//11 29//11 25//11
f 32//12 28//12 26//12 30//12
f 36//10 35//10 39//10 40//10
f 30//9 33//9 37//9 39//9 32//9
f 28//7 36//7 40//7 38//7 26//7
f 34//12 33//12 35//12 36//12
f 37//11 38//11 40//11 39//11
f 33//8 34//8 38//8 37//8
f 44//10 43//10 47//10 48//10
f 30//9 41//9 45//9 47//9 32//9 39//9 35//9 33//9
f 28//7 44//7 48//7 46//7 26//7 38//7 34//7 36//7
f 42//12 41//12 43//12 44//12
f 45//11 46//11 48//11 47//11
f 41//8 42//8 46//8 45//8
f 52//10 51//10 55//10 56//10
f 29//9 49//9 53//9 55//9 31//9 32//9 47//9 43//9 41//9 30//9
f 54//7 50//7 52//7 27//7 25//7
f 50//12 49//12 51//12 52//12
f 53//11 54//11 56//11 55//11
f 49//8 50//8 54//8 53//8
s 1
f 9//11 10//11 11//11 12//11
f 13//12 14//12 15//12 16//12
f 9//9 13//9 17//9 18//9 19//9 10//9
f 10//10 16//10 15//10 11//10
f 11//7 15//7 20//7 21//7 22//7 12//7
f 13//8 9//8 12//8 14//8
f 22//10 18//10 17//10 23//10
f 10//9 19//9 24//9 17//9 13//9 16//9
f 21//12 19//12 18//12 22//12
f 24//11 20//11 23//11 17//11
f 12//7 22//7 23//7 20//7 15//7 14//7
f 19//8 21//8 20//8 24//8
