# Blender v2.79 (sub 0) OBJ File: ''
# www.blender.org
mtllib fence.mtl
o Cube.010_Cube.012
v 0.950000 -1.000000 0.033333
v 0.950000 -0.400000 0.033333
v 0.950000 -0.400000 -0.033333
v 0.950000 -1.000000 -0.033333
v 1.050000 -0.400000 -0.033333
v 1.050000 -1.000000 -0.033333
v 1.050000 -0.400000 0.033333
v 1.050000 -1.000000 0.033333
v 0.940000 -0.400000 1.367998
v 0.940000 -0.300000 1.367999
v 0.940000 -0.300000 -1.367999
v 0.940000 -0.400000 -1.367999
v 1.060000 -0.300000 -1.367999
v 1.060000 -0.400000 -1.367999
v 1.060000 -0.300000 1.367999
v 1.060000 -0.400000 1.367998
v 0.980000 -1.000000 1.333332
v 0.980000 -0.400000 1.333332
v 0.980000 -0.400000 -1.333332
v 0.980000 -1.000000 -1.333332
v 1.020000 -0.400000 -1.333332
v 1.020000 -1.000000 -1.333332
v 1.020000 -0.400000 1.333332
v 1.020000 -1.000000 1.333332
v 0.950000 -1.000000 0.167823
v 0.950000 -0.400000 0.167823
v 0.950000 -0.400000 0.101156
v 0.950000 -1.000000 0.101156
v 1.050000 -0.400000 0.101156
v 1.050000 -1.000000 0.101156
v 1.050000 -0.400000 0.167823
v 1.050000 -1.000000 0.167823
v 0.950000 -1.000000 0.301156
v 0.950000 -0.400000 0.301156
v 0.950000 -0.400000 0.234490
v 0.950000 -1.000000 0.234490
v 1.050000 -0.400000 0.234490
v 1.050000 -1.000000 0.234490
v 1.050000 -0.400000 0.301156
v 1.050000 -1.000000 0.301156
v 0.950000 -1.000000 0.434489
v 0.950000 -0.400000 0.434489
v 0.950000 -0.400000 0.367823
v 0.950000 -1.000000 0.367823
v 1.050000 -0.400000 0.367823
v 1.050000 -1.000000 0.367823
v 1.050000 -0.400000 0.434489
v 1.050000 -1.000000 0.434489
v 0.950000 -1.000000 0.567823
v 0.950000 -0.400000 0.567823
v 0.950000 -0.400000 0.501156
v 0.950000 -1.000000 0.501156
v 1.050000 -0.400000 0.501156
v 1.050000 -1.000000 0.501156
v 1.050000 -0.400000 0.567823
v 1.050000 -1.000000 0.567823
v 0.950000 -1.000000 0.701156
v 0.950000 -0.400000 0.701156
v 0.950000 -0.400000 0.634489
v 0.950000 -1.000000 0.634489
v 1.050000 -0.400000 0.634489
v 1.050000 -1.000000 0.634489
v 1.050000 -0.400000 0.701156
v 1.050000 -1.000000 0.701156
v 0.950000 -1.000000 0.834489
v 0.950000 -0.400000 0.834489
v 0.950000 -0.400000 0.767822
v 0.950000 -1.000000 0.767822
v 1.050000 -0.400000 0.767822
v 1.050000 -1.000000 0.767822
v 1.050000 -0.400000 0.834489
v 1.050000 -1.000000 0.834489
v 0.950000 -1.000000 0.967822
v 0.950000 -0.400000 0.967822
v 0.950000 -0.400000 0.901156
v 0.950000 -1.000000 0.901156
v 1.050000 -0.400000 0.901156
v 1.050000 -1.000000 0.901156
v 1.050000 -0.400000 0.967822
v 1.050000 -1.000000 0.967822
v 0.950000 -1.000000 1.101155
v 0.950000 -0.400000 1.101155
v 0.950000 -0.400000 1.034489
v 0.950000 -1.000000 1.034489
v 1.050000 -0.400000 1.034489
v 1.050000 -1.000000 1.034489
v 1.050000 -0.400000 1.101155
v 1.050000 -1.000000 1.101155
v 0.950000 -1.000000 1.234489
v 0.950000 -0.400000 1.234489
v 0.950000 -0.400000 1.167822
v 0.950000 -1.000000 1.167822
v 1.050000 -0.400000 1.167822
v 1.050000 -1.000000 1.167822
v 1.050000 -0.400000 1.234489
v 1.050000 -1.000000 1.234489
v 0.950000 -1.000000 1.366665
v 0.950000 -0.400000 1.366665
v 0.950000 -0.400000 1.299999
v 0.950000 -1.000000 1.299999
v 1.050000 -0.400000 1.299999
v 1.050000 -1.000000 1.299999
v 1.050000 -0.400000 1.366665
v 1.050000 -1.000000 1.366665
v 0.950000 -1.000000 -0.100000
v 0.950000 -0.400000 -0.100000
v 0.950000 -0.400000 -0.166667
v 0.950000 -1.000000 -0.166667
v 1.050000 -0.400000 -0.166667
v 1.050000 -1.000000 -0.166667
v 1.050000 -0.400000 -0.100000
v 1.050000 -1.000000 -0.100000
v 0.950000 -1.000000 -0.233333
v 0.950000 -0.400000 -0.233333
v 0.950000 -0.400000 -0.300000
v 0.950000 -1.000000 -0.300000
v 1.050000 -0.400000 -0.300000
v 1.050000 -1.000000 -0.300000
v 1.050000 -0.400000 -0.233333
v 1.050000 -1.000000 -0.233333
v 0.950000 -1.000000 -0.366666
v 0.950000 -0.400000 -0.366666
v 0.950000 -0.400000 -0.433333
v 0.950000 -1.000000 -0.433333
v 1.050000 -0.400000 -0.433333
v 1.050000 -1.000000 -0.433333
v 1.050000 -0.400000 -0.366666
v 1.050000 -1.000000 -0.366666
v 0.950000 -1.000000 -0.500000
v 0.950000 -0.400000 -0.500000
v 0.950000 -0.400000 -0.566666
v 0.950000 -1.000000 -0.566666
v 1.050000 -0.400000 -0.566666
v 1.050000 -1.000000 -0.566666
v 1.050000 -0.400000 -0.500000
v 1.050000 -1.000000 -0.500000
v 0.950000 -1.000000 -0.633333
v 0.950000 -0.400000 -0.633333
v 0.950000 -0.400000 -0.699999
v 0.950000 -1.000000 -0.699999
v 1.050000 -0.400000 -0.699999
v 1.050000 -1.000000 -0.699999
v 1.050000 -0.400000 -0.633333
v 1.050000 -1.000000 -0.633333
v 0.950000 -1.000000 -0.766666
v 0.950000 -0.400000 -0.766666
v 0.950000 -0.400000 -0.833333
v 0.950000 -1.000000 -0.833333
v 1.050000 -0.400000 -0.833333
v 1.050000 -1.000000 -0.833333
v 1.050000 -0.400000 -0.766666
v 1.050000 -1.000000 -0.766666
v 0.950000 -1.000000 -0.899999
v 0.950000 -0.400000 -0.899999
v 0.950000 -0.400000 -0.966666
v 0.950000 -1.000000 -0.966666
v 1.050000 -0.400000 -0.966666
v 1.050000 -1.000000 -0.966666
v 1.050000 -0.400000 -0.899999
v 1.050000 -1.000000 -0.899999
v 0.950000 -1.000000 -1.033332
v 0.950000 -0.400000 -1.033332
v 0.950000 -0.400000 -1.099999
v 0.950000 -1.000000 -1.099999
v 1.050000 -0.400000 -1.099999
v 1.050000 -1.000000 -1.099999
v 1.050000 -0.400000 -1.033332
v 1.050000 -1.000000 -1.033332
v 0.950000 -1.000000 -1.166666
v 0.950000 -0.400000 -1.166666
v 0.950000 -0.400000 -1.233332
v 0.950000 -1.000000 -1.233332
v 1.050000 -0.400000 -1.233332
v 1.050000 -1.000000 -1.233332
v 1.050000 -0.400000 -1.166666
v 1.050000 -1.000000 -1.166666
v 0.950000 -1.000000 -1.300665
v 0.950000 -0.400000 -1.300665
v 0.950000 -0.400000 -1.367332
v 0.950000 -1.000000 -1.367332
v 1.050000 -0.400000 -1.367332
v 1.050000 -1.000000 -1.367332
v 1.050000 -0.400000 -1.300665
v 1.050000 -1.000000 -1.300665
vn -1.0000 -0.0000 0.0000
vn 0.0000 0.0000 -1.0000
vn 1.0000 0.0000 0.0000
vn 0.0000 -0.0000 1.0000
vn 0.0000 -1.0000 0.0000
vn 0.0000 1.0000 0.0000
usemtl None
s 1
f 1//1 2//1 3//1 4//1
f 4//2 3//2 5//2 6//2
f 6//3 5//3 7//3 8//3
f 8//4 7//4 2//4 1//4
f 4//5 6//5 8//5 1//5
f 5//6 3//6 2//6 7//6
f 9//1 10//1 11//1 12//1
f 12//2 11//2 13//2 14//2
f 14//3 13//3 15//3 16//3
f 16//4 15//4 10//4 9//4
f 12//5 14//5 16//5 9//5
f 13//6 11//6 10//6 15//6
f 17//1 18//1 19//1 20//1
f 20//2 19//2 21//2 22//2
f 22//3 21//3 23//3 24//3
f 24//4 23//4 18//4 17//4
f 20//5 22//5 24//5 17//5
f 21//6 19//6 18//6 23//6
f 25//1 26//1 27//1 28//1
f 28//2 27//2 29//2 30//2
f 30//3 29//3 31//3 32//3
f 32//4 31//4 26//4 25//4
f 28//5 30//5 32//5 25//5
f 29//6 27//6 26//6 31//6
f 33//1 34//1 35//1 36//1
f 36//2 35//2 37//2 38//2
f 38//3 37//3 39//3 40//3
f 40//4 39//4 34//4 33//4
f 36//5 38//5 40//5 33//5
f 37//6 35//6 34//6 39//6
f 41//1 42//1 43//1 44//1
f 44//2 43//2 45//2 46//2
f 46//3 45//3 47//3 48//3
f 48//4 47//4 42//4 41//4
f 44//5 46//5 48//5 41//5
f 45//6 43//6 42//6 47//6
f 49//1 50//1 51//1 52//1
f 52//2 51//2 53//2 54//2
f 54//3 53//3 55//3 56//3
f 56//4 55//4 50//4 49//4
f 52//5 54//5 56//5 49//5
f 53//6 51//6 50//6 55//6
f 57//1 58//1 59//1 60//1
f 60//2 59//2 61//2 62//2
f 62//3 61//3 63//3 64//3
f 64//4 63//4 58//4 57//4
f 60//5 62//5 64//5 57//5
f 61//6 59//6 58//6 63//6
f 65//1 66//1 67//1 68//1
f 68//2 67//2 69//2 70//2
f 70//3 69//3 71//3 72//3
f 72//4 71//4 66//4 65//4
f 68//5 70//5 72//5 65//5
f 69//6 67//6 66//6 71//6
f 73//1 74//1 75//1 76//1
f 76//2 75//2 77//2 78//2
f 78//3 77//3 79//3 80//3
f 80//4 79//4 74//4 73//4
f 76//5 78//5 80//5 73//5
f 77//6 75//6 74//6 79//6
f 81//1 82//1 83//1 84//1
f 84//2 83//2 85//2 86//2
f 86//3 85//3 87//3 88//3
f 88//4 87//4 82//4 81//4
f 84//5 86//5 88//5 81//5
f 85//6 83//6 82//6 87//6
f 89//1 90//1 91//1 92//1
f 92//2 91//2 93//2 94//2
f 94//3 93//3 95//3 96//3
f 96//4 95//4 90//4 89//4
f 92//5 94//5 96//5 89//5
f 93//6 91//6 90//6 95//6
f 97//1 98//1 99//1 100//1
f 100//2 99//2 101//2 102//2
f 102//3 101//3 103//3 104//3
f 104//4 103//4 98//4 97//4
f 100//5 102//5 104//5 97//5
f 101//6 99//6 98//6 103//6
f 105//1 106//1 107//1 108//1
f 108//2 107//2 109//2 110//2
f 110//3 109//3 111//3 112//3
f 112//4 111//4 106//4 105//4
f 108//5 110//5 112//5 105//5
f 109//6 107//6 106//6 111//6
f 113//1 114//1 115//1 116//1
f 116//2 115//2 117//2 118//2
f 118//3 117//3 119//3 120//3
f 120//4 119//4 114//4 113//4
f 116//5 118//5 120//5 113//5
f 117//6 115//6 114//6 119//6
f 121//1 122//1 123//1 124//1
f 124//2 123//2 125//2 126//2
f 126//3 125//3 127//3 128//3
f 128//4 127//4 122//4 121//4
f 124//5 126//5 128//5 121//5
f 125//6 123//6 122//6 127//6
f 129//1 130//1 131//1 132//1
f 132//2 131//2 133//2 134//2
f 134//3 133//3 135//3 136//3
f 136//4 135//4 130//4 129//4
f 132//5 134//5 136//5 129//5
f 133//6 131//6 130//6 135//6
f 137//1 138//1 139//1 140//1
f 140//2 139//2 141//2 142//2
f 142//3 141//3 143//3 144//3
f 144//4 143//4 138//4 137//4
f 140//5 142//5 144//5 137//5
f 141//6 139//6 138//6 143//6
f 145//1 146//1 147//1 148//1
f 148//2 147//2 149//2 150//2
f 150//3 149//3 151//3 152//3
f 152//4 151//4 146//4 145//4
f 148//5 150//5 152//5 145//5
f 149//6 147//6 146//6 151//6
f 153//1 154//1 155//1 156//1
f 156//2 155//2 157//2 158//2
f 158//3 157//3 159//3 160//3
f 160//4 159//4 154//4 153//4
f 156//5 158//5 160//5 153//5
f 157//6 155//6 154//6 159//6
f 161//1 162//1 163//1 164//1
f 164//2 163//2 165//2 166//2
f 166//3 165//3 167//3 168//3
f 168//4 167//4 162//4 161//4
f 164//5 166//5 168//5 161//5
f 165//6 163//6 162//6 167//6
f 169//1 170//1 171//1 172//1
f 172//2 171//2 173//2 174//2
f 174//3 173//3 175//3 176//3
f 176//4 175//4 170//4 169//4
f 172//5 174//5 176//5 169//5
f 173//6 171//6 170//6 175//6
f 177//1 178//1 179//1 180//1
f 180//2 179//2 181//2 182//2
f 182//3 181//3 183//3 184//3
f 184//4 183//4 178//4 177//4
f 180//5 182//5 184//5 177//5
f 181//6 179//6 178//6 183//6
