# Blender v2.79 (sub 0) OBJ File: ''
# www.blender.org
mtllib roof3.mtl
o Cube_Cube.002
v 1.000000 0.000000 1.000000
v 1.000000 1.596470 1.000000
v -1.000000 0.000000 1.000000
v 1.000000 0.000000 -1.000000
v 1.000000 1.596470 -1.000000
v -1.000000 0.000000 -1.000000
vn 0.0000 0.0000 1.0000
vn 0.0000 0.0000 -1.0000
vn 1.0000 0.0000 -0.0000
vn 0.0000 -1.0000 0.0000
vn -0.6239 0.7815 0.0000
usemtl None
s off
f 1//1 2//1 3//1
f 6//2 5//2 4//2
f 4//3 5//3 2//3 1//3
f 3//4 6//4 4//4 1//4
f 6//5 3//5 2//5 5//5
