# Blender v2.79 (sub 0) OBJ File: ''
# www.blender.org
mtllib window3.mtl
o interior_Cube.001
v 0.000000 -0.510000 0.510000
v 0.000000 0.510000 0.510000
v 0.000000 0.510000 -0.510000
v 0.000000 -0.510000 -0.510000
v 0.100000 0.510000 -0.510000
v 0.100000 -0.510000 -0.510000
v 0.100000 0.510000 0.510000
v 0.100000 -0.510000 0.510000
vn -1.0000 0.0000 0.0000
vn 0.0000 0.0000 -1.0000
vn 1.0000 -0.0000 0.0000
vn 0.0000 -0.0000 1.0000
vn 0.0000 -1.0000 -0.0000
vn 0.0000 1.0000 0.0000
usemtl None
s 1
f 1//1 2//1 3//1 4//1
f 4//2 3//2 5//2 6//2
f 6//3 5//3 7//3 8//3
f 8//4 7//4 2//4 1//4
f 4//5 6//5 8//5 1//5
f 5//6 3//6 2//6 7//6
o window_Cube
v 0.300000 -0.600000 -0.600000
v 0.300000 -0.600000 0.600000
v 0.000000 -0.600000 0.600000
v 0.000000 -0.600000 -0.600000
v 0.300000 0.600000 -0.599999
v 0.000000 0.600000 -0.600000
v 0.000000 0.600000 0.600000
v 0.300000 0.600000 0.600001
v 0.300000 0.510000 -0.510000
v 0.300000 -0.510000 -0.510000
v 0.300000 -0.510000 0.510000
v 0.000000 0.510000 0.510000
v 0.000000 -0.510000 0.510000
v 0.000000 -0.510000 -0.510000
v 0.000000 0.510000 -0.510000
v 0.300000 0.510000 0.510000
vn 0.0000 -1.0000 -0.0000
vn -0.0000 1.0000 0.0000
vn 1.0000 -0.0000 0.0000
vn -0.0000 -0.0000 1.0000
vn -1.0000 0.0000 0.0000
vn 0.0000 0.0000 -1.0000
usemtl Material.002
s 1
f 9//7 10//7 11//7 12//7
f 13//8 14//8 15//8 16//8
f 9//9 13//9 17//9 18//9 19//9 10//9
f 10//10 16//10 15//10 11//10
f 11//11 15//11 20//11 21//11 22//11 12//11
f 13//12 9//12 12//12 14//12
f 22//10 18//10 17//10 23//10
f 10//9 19//9 24//9 17//9 13//9 16//9
f 21//8 19//8 18//8 22//8
f 24//7 20//7 23//7 17//7
f 12//11 22//11 23//11 20//11 15//11 14//11
f 19//12 21//12 20//12 24//12
