# Blender v2.79 (sub 0) OBJ File: ''
# www.blender.org
mtllib window2.mtl
o Window_Cube.003
v 0.200000 0.250000 0.850000
v 0.200000 0.350000 0.850000
v 0.200000 0.250000 -0.850000
v 0.200000 0.350000 -0.850000
v 0.300000 0.250000 0.850000
v 0.300000 0.350000 0.850000
v 0.300000 0.250000 -0.850000
v 0.300000 0.350000 -0.850000
v 0.200000 0.450000 0.850000
v 0.200000 0.550000 0.850000
v 0.200000 0.450000 -0.850000
v 0.200000 0.550000 -0.850000
v 0.300000 0.450000 0.850000
v 0.300000 0.550000 0.850000
v 0.300000 0.450000 -0.850000
v 0.300000 0.550000 -0.850000
v 0.200000 0.650000 0.850000
v 0.200000 0.750000 0.850000
v 0.200000 0.650000 -0.850000
v 0.200000 0.750000 -0.850000
v 0.300000 0.650000 0.850000
v 0.300000 0.750000 0.850000
v 0.300000 0.650000 -0.850000
v 0.300000 0.750000 -0.850000
v 0.300000 -1.000000 -1.000000
v 0.300000 -1.000000 1.000000
v 0.000000 -1.000000 1.000000
v 0.000000 -1.000000 -1.000000
v 0.300000 1.000000 -0.999999
v -0.000000 1.000000 -1.000000
v -0.000000 1.000000 1.000000
v 0.300000 1.000000 1.000001
v 0.300000 0.850000 -0.850000
v 0.300000 -0.850000 -0.850000
v 0.300000 -0.850000 0.850000
v -0.000000 0.850000 0.850000
v 0.000000 -0.850000 0.850000
v 0.000000 -0.850000 -0.850000
v -0.000000 0.850000 -0.850000
v 0.300000 0.850000 0.850000
vn -1.0000 0.0000 0.0000
vn 0.0000 0.0000 -1.0000
vn 1.0000 0.0000 0.0000
vn 0.0000 0.0000 1.0000
vn 0.0000 -1.0000 0.0000
vn 0.0000 1.0000 0.0000
vn 0.5773 -0.5773 -0.5773
vn 0.5773 -0.5773 0.5773
vn -0.5773 -0.5773 0.5773
vn -0.5773 -0.5773 -0.5773
vn 0.5773 0.5773 -0.5773
vn -0.5773 0.5773 -0.5773
vn -0.5773 0.5773 0.5773
vn 0.5773 0.5773 0.5773
vn 0.9045 -0.3015 0.3015
vn 0.9045 0.3015 -0.3015
vn -0.9045 -0.3015 -0.3015
vn -0.9045 0.3015 0.3015
usemtl Material.001
s off
f 1//1 2//1 4//1 3//1
f 3//2 4//2 8//2 7//2
f 7//3 8//3 6//3 5//3
f 5//4 6//4 2//4 1//4
f 3//5 7//5 5//5 1//5
f 8//6 4//6 2//6 6//6
f 9//1 10//1 12//1 11//1
f 11//2 12//2 16//2 15//2
f 15//3 16//3 14//3 13//3
f 13//4 14//4 10//4 9//4
f 11//5 15//5 13//5 9//5
f 16//6 12//6 10//6 14//6
f 17//1 18//1 20//1 19//1
f 19//2 20//2 24//2 23//2
f 23//3 24//3 22//3 21//3
f 21//4 22//4 18//4 17//4
f 19//5 23//5 21//5 17//5
f 24//6 20//6 18//6 22//6
s 1
f 25//7 26//8 27//9 28//10
f 29//11 30//12 31//13 32//14
f 25//7 29//11 33//15 34//14 35//16 26//8
f 26//8 32//14 31//13 27//9
f 27//9 31//13 36//17 37//12 38//18 28//10
f 29//11 25//7 28//10 30//12
f 38//18 34//14 33//15 39//9
f 26//8 35//16 40//7 33//15 29//11 32//14
f 37//12 35//16 34//14 38//18
f 40//7 36//17 39//9 33//15
f 28//10 38//18 39//9 36//17 31//13 30//12
f 35//16 37//12 36//17 40//7
o Interior_interior_Cube.001
v 0.000000 -0.850000 0.850000
v 0.000000 0.850000 0.850000
v 0.000000 0.850000 -0.850000
v 0.000000 -0.850000 -0.850000
v 0.100000 0.850000 -0.850000
v 0.100000 -0.850000 -0.850000
v 0.100000 0.850000 0.850000
v 0.100000 -0.850000 0.850000
vn -1.0000 0.0000 0.0000
vn 0.0000 0.0000 -1.0000
vn 1.0000 -0.0000 0.0000
vn 0.0000 -0.0000 1.0000
vn 0.0000 -1.0000 -0.0000
vn 0.0000 1.0000 0.0000
usemtl None
s 1
f 41//19 42//19 43//19 44//19
f 44//20 43//20 45//20 46//20
f 46//21 45//21 47//21 48//21
f 48//22 47//22 42//22 41//22
f 44//23 46//23 48//23 41//23
f 45//24 43//24 42//24 47//24
