# Blender v2.79 (sub 0) OBJ File: ''
# www.blender.org
mtllib window5.mtl
o window_Cube
v 0.300000 -1.000000 -1.000000
v 0.300000 -1.000000 1.000000
v 0.000000 -1.000000 1.000000
v 0.000000 -1.000000 -1.000000
v 0.300000 1.000000 -0.999999
v 0.000000 1.000000 -1.000000
v 0.000000 1.000000 1.000000
v 0.300000 1.000000 1.000001
v 0.300000 0.850000 -0.850000
v 0.300000 -0.850000 -0.850000
v 0.300000 -0.850000 0.850000
v 0.000000 0.850000 0.850000
v 0.000000 -0.850000 0.850000
v 0.000000 -0.850000 -0.850000
v 0.000000 0.850000 -0.850000
v 0.300000 0.850000 0.850000
v 0.000000 -0.650000 0.900000
v 0.000000 -0.550000 0.900000
v 0.000000 -0.650000 -0.900000
v 0.000000 -0.550000 -0.900000
v 0.200000 -0.650000 0.900000
v 0.200000 -0.550000 0.900000
v 0.200000 -0.650000 -0.900000
v 0.200000 -0.550000 -0.900000
v 0.000000 -0.350000 0.900000
v 0.000000 -0.250000 0.900000
v 0.000000 -0.350000 -0.900000
v 0.000000 -0.250000 -0.900000
v 0.200000 -0.350000 0.900000
v 0.200000 -0.250000 0.900000
v 0.200000 -0.350000 -0.900000
v 0.200000 -0.250000 -0.900000
v 0.000000 0.550000 0.900000
v 0.000000 0.650000 0.900000
v 0.000000 0.550000 -0.900000
v 0.000000 0.650000 -0.900000
v 0.200000 0.550000 0.900000
v 0.200000 0.650000 0.900000
v 0.200000 0.550000 -0.900000
v 0.200000 0.650000 -0.900000
v 0.000000 0.250000 0.900000
v 0.000000 0.350000 0.900000
v 0.000000 0.250000 -0.900000
v 0.000000 0.350000 -0.900000
v 0.200000 0.250000 0.900000
v 0.200000 0.350000 0.900000
v 0.200000 0.250000 -0.900000
v 0.200000 0.350000 -0.900000
v 0.000000 -0.050000 0.900000
v 0.000000 0.050000 0.900000
v 0.000000 -0.050000 -0.900000
v 0.000000 0.050000 -0.900000
v 0.200000 -0.050000 0.900000
v 0.200000 0.050000 0.900000
v 0.200000 -0.050000 -0.900000
v 0.200000 0.050000 -0.900000
vn -1.0000 0.0000 0.0000
vn 0.0000 0.0000 -1.0000
vn 1.0000 0.0000 0.0000
vn 0.0000 0.0000 1.0000
vn 0.0000 -1.0000 0.0000
vn 0.0000 1.0000 -0.0000
usemtl Material.001
s off
f 17//1 18//1 20//1 19//1
f 19//2 20//2 24//2 23//2
f 23//3 24//3 22//3 21//3
f 21//4 22//4 18//4 17//4
f 19//5 23//5 21//5 17//5
f 24//6 20//6 18//6 22//6
f 25//1 26//1 28//1 27//1
f 27//2 28//2 32//2 31//2
f 31//3 32//3 30//3 29//3
f 29//4 30//4 26//4 25//4
f 27//5 31//5 29//5 25//5
f 32//6 28//6 26//6 30//6
f 33//1 34//1 36//1 35//1
f 35//2 36//2 40//2 39//2
f 39//3 40//3 38//3 37//3
f 37//4 38//4 34//4 33//4
f 35//5 39//5 37//5 33//5
f 40//6 36//6 34//6 38//6
f 41//1 42//1 44//1 43//1
f 43//2 44//2 48//2 47//2
f 47//3 48//3 46//3 45//3
f 45//4 46//4 42//4 41//4
f 43//5 47//5 45//5 41//5
f 48//6 44//6 42//6 46//6
f 49//1 50//1 52//1 51//1
f 51//2 52//2 56//2 55//2
f 55//3 56//3 54//3 53//3
f 53//4 54//4 50//4 49//4
f 51//5 55//5 53//5 49//5
f 56//6 52//6 50//6 54//6
s 1
f 1//5 2//5 3//5 4//5
f 5//6 6//6 7//6 8//6
f 1//3 5//3 9//3 10//3 11//3 2//3
f 2//4 8//4 7//4 3//4
f 3//1 7//1 12//1 13//1 14//1 4//1
f 5//2 1//2 4//2 6//2
f 14//4 10//4 9//4 15//4
f 2//3 11//3 16//3 9//3 5//3 8//3
f 13//6 11//6 10//6 14//6
f 16//5 12//5 15//5 9//5
f 4//1 14//1 15//1 12//1 7//1 6//1
f 11//2 13//2 12//2 16//2
o interior_Cube.001
v 0.000000 -0.850000 0.850000
v 0.000000 0.850000 0.850000
v 0.000000 0.850000 -0.850000
v 0.000000 -0.850000 -0.850000
v 0.100000 0.850000 -0.850000
v 0.100000 -0.850000 -0.850000
v 0.100000 0.850000 0.850000
v 0.100000 -0.850000 0.850000
vn -1.0000 0.0000 0.0000
vn 0.0000 0.0000 -1.0000
vn 1.0000 -0.0000 0.0000
vn 0.0000 -0.0000 1.0000
vn 0.0000 -1.0000 -0.0000
vn 0.0000 1.0000 0.0000
usemtl None
s 1
f 57//7 58//7 59//7 60//7
f 60//8 59//8 61//8 62//8
f 62//9 61//9 63//9 64//9
f 64//10 63//10 58//10 57//10
f 60//11 62//11 64//11 57//11
f 61//12 59//12 58//12 63//12
